<svg xmlns="http://www.w3.org/2000/svg" viewBox="0 0 512 512">
  <defs>
    <linearGradient id="bg" x1="0%" x2="100%" y1="0%" y2="100%">
      <stop offset="0%" stop-color="#f7b267"/>
      <stop offset="100%" stop-color="#c96d1b"/>
    </linearGradient>
  </defs>
  <rect width="512" height="512" rx="140" fill="url(#bg)"/>
  <path fill="#fff8ef" d="M135 170h242c17 0 31 14 31 31v110c0 17-14 31-31 31H135c-17 0-31-14-31-31V201c0-17 14-31 31-31Z"/>
  <path fill="#1f1b16" d="M164 209h184v29H164zm0 53h143v29H164zm0 53h111v29H164z"/>
  <circle cx="362" cy="277" r="44" fill="#1e7b5d"/>
  <path fill="#fff" d="M343 277h38v14h-38z"/>
</svg>
